<svg width="32" height="32" viewBox="0 0 32 32" fill="none" xmlns="http://www.w3.org/2000/svg">
<g id="LoL_Icon_Flat_GOLD 1">
<g id="Group">
<path id="Vector" d="M17.5254 6.72015C19.1734 6.98524 20.7213 7.68383 22.0104 8.74429C23.2994 9.80476 24.2833 11.1889 24.8611 12.755C25.4389 14.321 25.5898 16.0125 25.2985 17.6561C25.0071 19.2996 24.2839 20.8362 23.203 22.1082H26.381C27.4683 20.263 28.0402 18.1598 28.037 16.0182C28.037 9.89095 23.4518 4.83495 17.5254 4.09375V6.72015Z" fill="#BF913B"/>
<path id="Vector_2" d="M8.35499 25.2747V21.4935C7.21188 19.8966 6.59723 17.9819 6.59723 16.0181C6.59723 14.0542 7.21188 12.1396 8.35499 10.5427V6.76025C6.99304 7.88789 5.8967 9.30217 5.14417 10.9022C4.39164 12.5023 4.00146 14.2487 4.00146 16.0169C4.00146 17.785 4.39164 19.5314 5.14417 21.1315C5.8967 22.7315 6.99304 24.1458 8.35499 25.2735V25.2747Z" fill="#BF913B"/>
</g>
<path id="Vector_3" d="M15.7258 3H8.83936L10.1554 5.692V26.3332L8.85296 28.9956H24.4598L25.8858 23.908H15.7258V3Z" fill="#BF913B"/>
</g>
</svg>
